#!OML:ASF H:\Terrain\Patient Classification 1\Terrain2\Thursday\justin.ASF
:FULLY-SPECIFIED
:DEGREES
2442
root -2.83953 17.26 -10.2493 187.883 55.2656 -530.511
lowerback 7.40142 -0.688532 0.235704
upperback 3.08461 -0.653584 3.66138
thorax -0.922525 -0.264718 3.70108
lowerneck -9.25509 -6.5748 -10.7342
upperneck 39.8972 -6.36919 5.65143
head 16.5399 -2.60774 3.64975
rclavicle 1.01181e-013 -4.77083e-014
rhumerus -27.6863 -3.35979 -80.4494
rradius 53.1133
rwrist -16.283
rhand -20.6116 12.8972
rfingers 7.12502
rthumb 5.74933 -17.0048
lclavicle 1.01181e-013 -4.77083e-014
lhumerus -36.8414 11.4664 78.3692
lradius 28.9376
lwrist 1.71192
lhand -18.4267 22.6318
lfingers 7.12502
lthumb 7.8585 52.4657
rfemur -14.3383 12.4581 22.5636
rtibia 36.3214
rfoot -13.8295 28.4407
rtoes 28.4537
lfemur -11.2513 -9.21683 -8.4731
ltibia 29.2096
lfoot -11.0473 -24.9507
ltoes 17.5414
2443
root -2.85437 17.2564 -10.2956 187.4 55.9841 -531.298
lowerback 7.3207 -0.704529 -0.535932
upperback 3.06139 -0.741509 3.59574
thorax -0.885445 -0.319303 4.07611
lowerneck -9.23426 -6.58859 -10.8162
upperneck 39.8712 -6.44081 5.75314
head 16.5389 -2.64655 3.69475
rclavicle -1.1778e-014 -1.35174e-014
rhumerus -27.9808 -3.61737 -80.1641
rradius 53.0936
rwrist -16.7328
rhand -20.7544 12.8302
rfingers 7.12502
rthumb 5.61152 -17.0755
lclavicle -1.1778e-014 -1.35174e-014
lhumerus -36.2834 11.5987 78.0986
lradius 28.3784
lwrist 1.26398
lhand -19.997 22.3575
lfingers 7.12502
lthumb 6.34271 52.2425
rfemur -14.7609 12.3823 21.8404
rtibia 36.7844
rfoot -12.4854 28.6696
rtoes 30.9342
lfemur -11.0586 -8.71392 -9.19218
ltibia 28.8738
lfoot -10.2738 -25.1529
ltoes 20.1998
2444
root -2.8721 17.2584 -10.3518 187.045 56.5606 -532.002
lowerback 7.12064 -0.713334 -0.920963
upperback 3.0203 -0.794609 3.46947
thorax -0.80886 -0.353798 4.16401
lowerneck -9.1718 -6.68186 -10.8405
upperneck 39.7751 -6.64874 5.83258
head 16.5022 -2.73698 3.69279
rclavicle 1.47598e-014 -5.12864e-014
rhumerus -28.3397 -4.31461 -79.7835
rradius 52.939
rwrist -16.6722
rhand -20.7338 12.8791
rfingers 7.12502
rthumb 5.63135 -17.0261
lclavicle 1.47598e-014 -5.12864e-014
lhumerus -35.5819 11.0546 78.0002
lradius 27.9013
lwrist 1.40927
lhand -19.4508 22.7975
lfingers 7.12502
lthumb 6.86995 52.666
rfemur -15.222 11.9464 21.1619
rtibia 37.2738
rfoot -12.1062 28.9269
rtoes 32.3471
lfemur -10.9024 -8.66116 -9.91481
ltibia 28.5289
lfoot -10.2473 -24.7698
ltoes 20.3159
2445
root -2.88871 17.2657 -10.4054 186.973 57.1501 -532.396
lowerback 6.89954 -0.722797 -1.11701
upperback 2.95866 -0.832201 3.37653
thorax -0.745278 -0.378201 4.17788
lowerneck -9.06061 -6.70085 -10.8302
upperneck 39.6162 -6.74848 5.8855
head 16.4018 -2.78155 3.68887
rclavicle 3.97569e-015 1.47101e-014
rhumerus -28.6299 -5.15077 -79.4135
rradius 52.5905
rwrist -16.3241
rhand -20.4612 13.1545
rfingers 7.12502
rthumb 5.89458 -16.7435
lclavicle 3.97569e-015 1.47101e-014
lhumerus -35.2272 11.0208 77.6627
lradius 27.9635
lwrist 1.38641
lhand -17.9963 23.0791
lfingers 7.12502
lthumb 8.27387 52.8971
rfemur -15.6836 11.6734 20.7037
rtibia 37.7411
rfoot -12.7481 28.8682
rtoes 30.5071
lfemur -10.8082 -8.58183 -10.4367
ltibia 28.2703
lfoot -10.6303 -24.2825
ltoes 19.5039
2446
root -2.90416 17.2734 -10.448 187.276 57.8439 -532.288
lowerback 6.76989 -0.719717 -1.14285
upperback 2.89502 -0.835475 3.36058
thorax -0.738699 -0.381827 4.17447
lowerneck -8.86727 -6.65162 -10.9152
upperneck 39.4692 -6.75647 6.04023
head 16.2875 -2.78792 3.76621
rclavicle 3.4191e-014 1.86858e-014
rhumerus -28.9718 -5.76325 -79.0959
rradius 52.3447
rwrist -16.2847
rhand -20.1242 13.4279
rfingers 7.12502
rthumb 6.21988 -16.4608
lclavicle 3.4191e-014 1.86858e-014
lhumerus -34.997 11.184 77.2518
lradius 28.1332
lwrist 1.39552
lhand -17.4914 22.9528
lfingers 7.12502
lthumb 8.76118 52.751
rfemur -16.0188 11.6645 20.629
rtibia 38.0566
rfoot -13.3684 28.3382
rtoes 28.1153
lfemur -10.7838 -7.97672 -10.5657
ltibia 28.1531
lfoot -10.7176 -24.3775
ltoes 19.7398
2447
root -2.91815 17.2795 -10.4892 187.283 58.4011 -532.444
lowerback 6.69473 -0.708864 -1.24516
upperback 2.85739 -0.83204 3.33622
thorax -0.734814 -0.382317 4.20596
lowerneck -8.75767 -6.66098 -11.0751
upperneck 39.3662 -6.80972 6.15995
head 16.2283 -2.82712 3.83422
rclavicle -2.54444e-014 -2.38542e-015
rhumerus -29.3304 -6.2441 -78.7116
rradius 52.1186
rwrist -16.5954
rhand -20.6167 13.3208
rfingers 7.12502
rthumb 5.74445 -16.5813
lclavicle -2.54444e-014 -2.38542e-015
lhumerus -34.7103 11.0744 77.0091
lradius 28.4147
lwrist 1.30467
lhand -17.3123 23.1006
lfingers 7.12502
lthumb 8.93401 52.8915
rfemur -16.1304 11.072 20.5168
rtibia 38.255
rfoot -14.7802 27.5777
rtoes 25.0282
lfemur -10.8071 -7.44048 -10.8007
ltibia 28.187
lfoot -10.1329 -24.7419
ltoes 22.362
2448
root -2.9362 17.2755 -10.5364 187.835 58.8627 -531.787
lowerback 6.753 -0.765023 -0.865807
upperback 2.91165 -0.874879 3.43665
thorax -0.71256 -0.399108 4.09888
lowerneck -8.77738 -6.64381 -11.2613
upperneck 39.1876 -6.83302 6.30357
head 16.1591 -2.85881 3.91557
rclavicle 2.25621e-014 9.14409e-015
rhumerus -29.411 -6.97836 -78.419
rradius 51.6871
rwrist -16.5823
rhand -21.1913 12.9143
rfingers 7.12502
rthumb 5.1896 -17.0022
lclavicle 2.25621e-014 9.14409e-015
lhumerus -34.3751 11.2804 76.7271
lradius 28.6783
lwrist 1.15898
lhand -17.7095 23.4979
lfingers 7.12502
lthumb 8.55069 53.3048
rfemur -16.1732 10.6047 20.8081
rtibia 38.3542
rfoot -13.8348 27.5701
rtoes 27.6517
lfemur -10.6468 -6.94755 -10.6227
ltibia 28.1967
lfoot -9.73611 -24.9232
ltoes 23.9283
2449
root -2.9601 17.273 -10.5875 189.154 59.434 -530.166
lowerback 6.90056 -0.857006 -0.0428756
upperback 3.01793 -0.924433 3.66453
thorax -0.691671 -0.412041 3.87504
lowerneck -8.86527 -6.59725 -11.2893
upperneck 39.0132 -6.82519 6.37341
head 16.0904 -2.8648 3.93931
rclavicle 7.73272e-014 -8.11041e-014
rhumerus -29.4386 -7.7157 -78.1841
rradius 51.225
rwrist -16.3107
rhand -21.3296 12.4133
rfingers 7.12502
rthumb 5.05606 -17.5064
lclavicle 7.73272e-014 -8.11041e-014
lhumerus -34.1346 11.8582 76.414
lradius 28.9535
lwrist 1.34806
lhand -18.86 23.6011
lfingers 7.12502
lthumb 7.44024 53.4502
rfemur -16.0762 10.0657 21.6035
rtibia 38.4888
rfoot -13.7182 27.0849
rtoes 26.7872
lfemur -10.2682 -6.52532 -10.0194
ltibia 28.0447
lfoot -10.1225 -24.7055
ltoes 22.7204
2450
root -2.9774 17.2998 -10.6368 189.374 60.1836 -529.958
lowerback 6.95685 -0.768417 0.0788621
upperback 3.04011 -0.798248 3.6407
thorax -0.710922 -0.347622 3.7728
lowerneck -8.82188 -6.67506 -11.0147
upperneck 38.9006 -6.97751 6.18892
head 16.0124 -2.92033 3.77468
rclavicle 5.79457e-014 3.29983e-014
rhumerus -29.83 -8.13585 -77.8618
rradius 50.9961
rwrist -16.5692
rhand -21.5308 11.9197
rfingers 7.12502
rthumb 4.86183 -18.0045
lclavicle 5.79457e-014 3.29983e-014
lhumerus -33.9433 11.8478 76.2568
lradius 29.386
lwrist 1.66607
lhand -19.2163 23.8068
lfingers 7.12502
lthumb 7.09633 53.6678
rfemur -16.2838 9.22385 21.5954
rtibia 38.7019
rfoot -14.1975 26.3627
rtoes 24.7194
lfemur -9.81459 -6.45387 -10.2998
ltibia 27.6485
lfoot -11.0152 -23.9695
ltoes 19.7701
2451
root -2.9886 17.3277 -10.6788 188.541 61.1545 -530.999
lowerback 7.03906 -0.672514 -0.676653
upperback 2.95673 -0.730509 3.53794
thorax -0.837164 -0.322601 4.09113
lowerneck -8.6612 -6.67504 -10.8362
upperneck 38.8615 -6.89627 5.76927
head 15.911 -2.92052 3.56815
rclavicle 3.22031e-014 -1.27222e-014
rhumerus -30.3115 -7.89524 -77.5934
rradius 50.8991
rwrist -17.3546
rhand -21.6802 11.5845
rfingers 7.12502
rthumb 4.71754 -18.343
lclavicle 3.22031e-014 -1.27222e-014
lhumerus -34.0275 11.9343 76.0187
lradius 29.9595
lwrist 2.14656
lhand -19.0958 24.2675
lfingers 7.12502
lthumb 7.21267 54.1246
rfemur -16.656 8.75981 20.9237
rtibia 38.9824
rfoot -14.203 25.4787
rtoes 23.9757
lfemur -9.42621 -6.28026 -11.2446
ltibia 27.3454
lfoot -11.7422 -23.1789
ltoes 17.8359
2452
root -2.99872 17.3563 -10.7196 188.455 62.0228 -531.138
lowerback 7.22062 -0.762473 -1.17207
upperback 2.8811 -0.880103 3.65899
thorax -0.993236 -0.399571 4.51474
lowerneck -8.74849 -6.52237 -10.8784
upperneck 38.9806 -6.53443 5.42563
head 15.9379 -2.82446 3.48477
rclavicle -4.67144e-015 -8.74653e-015
rhumerus -30.5908 -7.36608 -77.4322
rradius 50.6633
rwrist -18.1367
rhand -21.7442 11.4718
rfingers 7.12502
rthumb 4.65581 -18.457
lclavicle -4.67144e-015 -8.74653e-015
lhumerus -34.306 12.6064 75.6568
lradius 30.6629
lwrist 3.04712
lhand -19.5962 24.5839
lfingers 7.12502
lthumb 6.72961 54.457
rfemur -17.1561 7.96692 20.9065
rtibia 39.3004
rfoot -14.2035 24.516
rtoes 21.888
lfemur -9.06097 -5.9668 -11.6475
ltibia 27.0998
lfoot -12.0035 -22.6621
ltoes 17.9891
2453
root -3.01455 17.3315 -10.7593 189.024 62.7224 -530.471
lowerback 7.40404 -0.679538 -0.902089
upperback 2.89432 -0.748217 3.6295
thorax -1.09749 -0.329595 4.323
lowerneck -8.99807 -6.54713 -10.5787
upperneck 39.1516 -6.61565 5.37784
head 16.0757 -2.8208 3.39963
rclavicle 3.10104e-014 -1.19271e-015
rhumerus -30.9004 -8.30542 -77.2625
rradius 50.1134
rwrist -17.9682
rhand -21.6465 11.8967
rfingers 7.12502
rthumb 4.75011 -18.0301
lclavicle 3.10104e-014 -1.19271e-015
lhumerus -34.1325 12.3153 75.4354
lradius 31.1249
lwrist 4.30199
lhand -20.5968 23.854
lfingers 7.12502
lthumb 5.76368 53.7556
rfemur -16.9888 7.19685 21.2315
rtibia 39.5925
rfoot -15.3674 23.2555
rtoes 19.198
lfemur -8.74424 -5.8581 -11.6276
ltibia 26.9508
lfoot -12.5038 -21.9997
ltoes 17.1004
